<svg width="99" height="99" viewBox="0 0 99 99" fill="none" xmlns="http://www.w3.org/2000/svg">
<path d="M4 49C4 42.9592 5.18983 36.9775 7.50154 31.3966C9.81325 25.8156 13.2016 20.7446 17.4731 16.4731C21.7446 12.2016 26.8156 8.81325 32.3966 6.50153C37.9775 4.18982 43.9592 3 50 3C56.0407 3 62.0226 4.18983 67.6033 6.50155C73.1845 8.81325 78.2555 12.2016 82.5271 16.4731C86.7986 20.7446 90.1865 25.8156 92.4985 31.3966C94.81 36.9775 96 42.9592 96 49H50H4Z" fill="url(#paint0_linear_13_193)" fill-opacity="0.5"/>
<path d="M49.4999 95.2875C74.7876 95.2875 95.2874 74.7878 95.2874 49.5C95.2874 24.2123 74.7876 3.71252 49.4999 3.71252C24.2122 3.71252 3.7124 24.2123 3.7124 49.5C3.7124 74.7878 24.2122 95.2875 49.4999 95.2875Z" stroke="#9AD5FF" stroke-width="7"/>
<path d="M49.5004 63.7875C57.3911 63.7875 63.7879 57.3908 63.7879 49.5C63.7879 41.6092 57.3911 35.2125 49.5004 35.2125C41.6096 35.2125 35.2129 41.6092 35.2129 49.5C35.2129 57.3908 41.6096 63.7875 49.5004 63.7875Z" fill="#FEFEFE" stroke="#9AD5FF" stroke-width="7"/>
<path d="M36 49L4 49" stroke="#9AD5FF" stroke-width="7"/>
<path d="M95.4614 49.4998H64.3076" stroke="#9AD5FF" stroke-width="7"/>
<defs>
<linearGradient id="paint0_linear_13_193" x1="109.8" y1="3" x2="-9.80001" y2="46.7" gradientUnits="userSpaceOnUse">
<stop stop-color="#78B1FE"/>
<stop offset="1" stop-color="#82CADD"/>
</linearGradient>
</defs>
</svg>
